<svg width="29" height="31" viewBox="0 0 29 31" fill="none" xmlns="http://www.w3.org/2000/svg">
<g clip-path="url(#clip0)">
<path d="M28.5469 15.8008C28.5469 7.77344 22.2598 1.26953 14.5 1.26953C6.74023 1.26953 0.453125 7.77344 0.453125 15.8008C0.453125 23.0535 5.58986 29.0652 12.3052 30.1562V20.0014H8.73682V15.8008H12.3052V12.5992C12.3052 8.95762 14.4009 6.94609 17.6107 6.94609C19.1479 6.94609 20.7554 7.22969 20.7554 7.22969V10.8039H18.9837C17.2391 10.8039 16.6948 11.9242 16.6948 13.0732V15.8008H20.5906L19.9675 20.0014H16.6948V30.1562C23.4101 29.0652 28.5469 23.0535 28.5469 15.8008Z" fill="#4C0077"/>
</g>
<defs>
<clipPath id="clip0">
<rect width="29" height="30" fill="white" transform="translate(0 0.800781)"/>
</clipPath>
</defs>
</svg>
