<svg width="33" height="34" viewBox="0 0 33 34" fill="none" xmlns="http://www.w3.org/2000/svg">
<g clip-path="url(#clip0)">
<path d="M11.3699 25.9145C11.3699 26.0434 11.2215 26.1465 11.0344 26.1465C10.8215 26.1658 10.6731 26.0627 10.6731 25.9145C10.6731 25.7855 10.8215 25.6824 11.0086 25.6824C11.2021 25.6631 11.3699 25.7662 11.3699 25.9145ZM9.3634 25.6244C9.31824 25.7533 9.44727 25.9016 9.64082 25.9402C9.80856 26.0047 10.0021 25.9402 10.0408 25.8113C10.0795 25.6824 9.95695 25.5342 9.7634 25.4762C9.59566 25.4311 9.40856 25.4955 9.3634 25.6244ZM12.215 25.5148C12.0279 25.56 11.8989 25.6824 11.9182 25.8307C11.9376 25.9596 12.1053 26.0434 12.2989 25.9982C12.486 25.9531 12.615 25.8307 12.5957 25.7018C12.5763 25.5793 12.4021 25.4955 12.215 25.5148ZM16.4602 0.816406C7.51179 0.816406 0.666626 7.60332 0.666626 16.543C0.666626 23.6908 5.16985 29.8074 11.6021 31.9602C12.4279 32.1084 12.7182 31.5992 12.7182 31.1803C12.7182 30.7807 12.6989 28.5764 12.6989 27.2229C12.6989 27.2229 8.18275 28.1897 7.23437 25.3022C7.23437 25.3022 6.49888 23.4266 5.44082 22.9432C5.44082 22.9432 3.9634 21.9313 5.54404 21.9506C5.54404 21.9506 7.1505 22.0795 8.03437 23.6135C9.44727 26.1014 11.815 25.3859 12.7376 24.9606C12.886 23.9293 13.3053 23.2139 13.7699 22.7885C10.1634 22.3889 6.52469 21.8668 6.52469 15.6664C6.52469 13.8939 7.01501 13.0045 8.04727 11.8701C7.87953 11.4512 7.33114 9.72383 8.21501 7.49375C9.5634 7.07481 12.6666 9.23399 12.6666 9.23399C13.9569 8.87305 15.344 8.68613 16.7182 8.68613C18.0924 8.68613 19.4795 8.87305 20.7699 9.23399C20.7699 9.23399 23.8731 7.06836 25.2215 7.49375C26.1053 9.73027 25.5569 11.4512 25.3892 11.8701C26.4215 13.0109 27.0537 13.9004 27.0537 15.6664C27.0537 21.8861 23.2537 22.3824 19.6473 22.7885C20.2408 23.2977 20.744 24.2645 20.744 25.7791C20.744 27.9512 20.7247 30.6389 20.7247 31.1674C20.7247 31.5863 21.0215 32.0955 21.8408 31.9473C28.2924 29.8074 32.6666 23.6908 32.6666 16.543C32.6666 7.60332 25.4086 0.816406 16.4602 0.816406ZM6.93759 23.0463C6.85372 23.1107 6.87308 23.259 6.98275 23.3814C7.08598 23.4846 7.23437 23.5297 7.31824 23.4459C7.40211 23.3814 7.38275 23.2332 7.27308 23.1107C7.16985 23.0076 7.02146 22.9625 6.93759 23.0463ZM6.24082 22.5242C6.19566 22.608 6.26017 22.7111 6.38921 22.7756C6.49243 22.84 6.62146 22.8207 6.66663 22.7305C6.71179 22.6467 6.64727 22.5436 6.51824 22.4791C6.38921 22.4404 6.28598 22.4598 6.24082 22.5242ZM8.33114 24.8188C8.22792 24.9025 8.26663 25.0959 8.41501 25.2184C8.5634 25.3666 8.7505 25.3859 8.83437 25.2828C8.91824 25.199 8.87953 25.0057 8.7505 24.8832C8.60856 24.735 8.41501 24.7156 8.33114 24.8188ZM7.59566 23.8713C7.49243 23.9357 7.49243 24.1033 7.59566 24.2516C7.69888 24.3998 7.87308 24.4643 7.95695 24.3998C8.06017 24.316 8.06017 24.1484 7.95695 24.0002C7.86663 23.852 7.69888 23.7875 7.59566 23.8713Z" fill="#4C0077"/>
</g>
<defs>
<clipPath id="clip0">
<rect width="32" height="33" fill="white" transform="translate(0.666626 0.300781)"/>
</clipPath>
</defs>
</svg>
