<svg width="29" height="34" viewBox="0 0 29 34" fill="none" xmlns="http://www.w3.org/2000/svg">
<g clip-path="url(#clip0)">
<path d="M14.5065 9.38872C10.3895 9.38872 7.06876 12.6952 7.06876 16.7944C7.06876 20.8936 10.3895 24.2 14.5065 24.2C18.6234 24.2 21.9442 20.8936 21.9442 16.7944C21.9442 12.6952 18.6234 9.38872 14.5065 9.38872ZM14.5065 21.609C11.846 21.609 9.67099 19.4499 9.67099 16.7944C9.67099 14.1389 11.8395 11.9797 14.5065 11.9797C17.1734 11.9797 19.342 14.1389 19.342 16.7944C19.342 19.4499 17.167 21.609 14.5065 21.609ZM23.9833 9.08579C23.9833 10.0461 23.2065 10.8131 22.2484 10.8131C21.2839 10.8131 20.5136 10.0397 20.5136 9.08579C20.5136 8.13188 21.2904 7.35845 22.2484 7.35845C23.2065 7.35845 23.9833 8.13188 23.9833 9.08579ZM28.9094 10.8389C28.7993 8.52505 28.2685 6.47544 26.5661 4.78677C24.8701 3.0981 22.8116 2.56958 20.4877 2.45356C18.0926 2.31821 10.9138 2.31821 8.51876 2.45356C6.20135 2.56313 4.14287 3.09165 2.44041 4.78032C0.737957 6.46899 0.213626 8.5186 0.0971084 10.8325C-0.038829 13.2172 -0.038829 20.3651 0.0971084 22.7499C0.207153 25.0637 0.737957 27.1133 2.44041 28.802C4.14287 30.4907 6.19488 31.0192 8.51876 31.1352C10.9138 31.2706 18.0926 31.2706 20.4877 31.1352C22.8116 31.0256 24.8701 30.4971 26.5661 28.802C28.2621 27.1133 28.7929 25.0637 28.9094 22.7499C29.0453 20.3651 29.0453 13.2237 28.9094 10.8389ZM25.8152 25.3086C25.3103 26.5719 24.3328 27.5452 23.0576 28.0543C21.148 28.8084 16.6167 28.6344 14.5065 28.6344C12.3962 28.6344 7.85849 28.802 5.95537 28.0543C4.68662 27.5516 3.70916 26.5784 3.19778 25.3086C2.44041 23.4073 2.61519 18.8956 2.61519 16.7944C2.61519 14.6932 2.44689 10.175 3.19778 8.28013C3.70269 7.01685 4.68014 6.0436 5.95537 5.53442C7.86496 4.78032 12.3962 4.95435 14.5065 4.95435C16.6167 4.95435 21.1545 4.78677 23.0576 5.53442C24.3263 6.03716 25.3038 7.0104 25.8152 8.28013C26.5726 10.1815 26.3978 14.6932 26.3978 16.7944C26.3978 18.8956 26.5726 23.4137 25.8152 25.3086Z" fill="#4C0077"/>
</g>
<defs>
<clipPath id="clip0">
<rect width="29" height="33" fill="white" transform="translate(0 0.300781)"/>
</clipPath>
</defs>
</svg>
