<?xml version="1.0" encoding="iso-8859-1"?>
<!-- Generator: Adobe Illustrator 19.0.0, SVG Export Plug-In . SVG Version: 6.00 Build 0)  -->
<svg version="1.1" id="Capa_1" xmlns="http://www.w3.org/2000/svg" xmlns:xlink="http://www.w3.org/1999/xlink" x="0px" y="0px"
	 viewBox="0 0 512 512" style="enable-background:new 0 0 512 512;" xml:space="preserve">
<path style="fill:#303C42;" d="M256,128C112.448,128,0,184.229,0,256s112.448,128,256,128s256-56.229,256-128S399.552,128,256,128z"
	/>
<path style="fill:#82B1FF;" d="M256,362.667c-61.335,0-117.936-11.428-160.259-29.673l8.592-34.327h37.417
	c28.208,0,52.688-19.115,59.542-46.49l1.865-7.51c3.198-12.75,0.385-26.01-7.698-36.365C187.365,197.938,175.198,192,162.052,192
	h-44.719c-4.896,0-9.156,3.333-10.344,8.083l-30.88,123.521C42.083,305.051,21.333,281.396,21.333,256
	c0-57.823,107.469-106.667,234.667-106.667S490.667,198.177,490.667,256S383.198,362.667,256,362.667z"/>
<path style="opacity:0.2;fill:#FFFFFF;enable-background:new    ;" d="M32,266.667C32,208.844,139.469,160,266.667,160
	c89.076,0,168.319,23.992,207.911,58.208C440.173,178.411,354.065,149.333,256,149.333c-127.198,0-234.667,48.844-234.667,106.667
	c0,17.022,9.491,33.217,25.884,47.663C37.439,292.076,32,279.602,32,266.667z"/>
<path id="SVGCleanerId_0" style="fill:#82B1FF;" d="M109.667,277.333l16-64h36.385c6.521,0,12.573,2.948,16.583,8.094
	c4.021,5.146,5.417,11.729,3.823,18.073l-1.865,7.51c-4.469,17.854-20.438,30.323-38.844,30.323H109.667z"/>
<g>
	<path id="SVGCleanerId_0_1_" style="fill:#82B1FF;" d="M109.667,277.333l16-64h36.385c6.521,0,12.573,2.948,16.583,8.094
		c4.021,5.146,5.417,11.729,3.823,18.073l-1.865,7.51c-4.469,17.854-20.438,30.323-38.844,30.323H109.667z"/>
</g>
<g>
	<path style="fill:#303C42;" d="M407.385,192h-44.719c-4.896,0-9.156,3.333-10.344,8.083l-21.281,85.094
		c-0.042,0.156-0.073,0.302-0.115,0.448l-10.604,42.458c-1.438,5.708,2.042,11.5,7.76,12.927c0.865,0.219,1.74,0.323,2.594,0.323
		c4.781,0,9.125-3.229,10.333-8.083l8.656-34.583h37.417c28.208,0,52.688-19.115,59.542-46.49l1.865-7.51
		c3.198-12.75,0.385-26.01-7.698-36.365C432.698,197.938,420.531,192,407.385,192z M427.792,239.5l-1.865,7.51
		c-4.469,17.854-20.438,30.323-38.844,30.323H355l16-64h36.385c6.521,0,12.573,2.948,16.583,8.094
		C427.99,226.573,429.385,233.156,427.792,239.5z"/>
	<path style="fill:#303C42;" d="M313.5,205.021C306.76,196.75,296.781,192,286.104,192H252.29l3.533-19.427
		c1.063-5.792-2.781-11.344-8.583-12.396c-5.76-1.063-11.354,2.781-12.396,8.583L213.51,286.094
		c-1.063,5.792,2.781,11.344,8.583,12.396c0.646,0.125,1.281,0.177,1.917,0.177c5.063,0,9.552-3.604,10.479-8.76l13.922-76.573
		h37.693c4.229,0,8.177,1.875,10.844,5.156c2.667,3.281,3.708,7.531,2.844,11.677l-11.573,55.667
		c-1.198,5.76,2.51,11.406,8.281,12.615c0.729,0.146,1.458,0.219,2.177,0.219c4.948,0,9.385-3.458,10.438-8.5l11.573-55.667
		C322.854,224.052,320.229,213.302,313.5,205.021z"/>
</g>
<linearGradient id="SVGID_1_" gradientUnits="userSpaceOnUse" x1="-44.8361" y1="639.2108" x2="-24.5701" y2="629.7579" gradientTransform="matrix(21.3333 0 0 -21.3333 996.3334 13791.667)">
	<stop  offset="0" style="stop-color:#FFFFFF;stop-opacity:0.2"/>
	<stop  offset="1" style="stop-color:#FFFFFF;stop-opacity:0"/>
</linearGradient>
<path style="fill:url(#SVGID_1_);" d="M256,128C112.448,128,0,184.229,0,256s112.448,128,256,128s256-56.229,256-128
	S399.552,128,256,128z"/>
<g>
</g>
<g>
</g>
<g>
</g>
<g>
</g>
<g>
</g>
<g>
</g>
<g>
</g>
<g>
</g>
<g>
</g>
<g>
</g>
<g>
</g>
<g>
</g>
<g>
</g>
<g>
</g>
<g>
</g>
</svg>
