<svg width="32" height="32" viewBox="0 0 32 32" fill="none" xmlns="http://www.w3.org/2000/svg">
<g clip-path="url(#clip0)">
<path d="M28.1467 9.48663C28.1664 9.762 28.1664 10.0374 28.1664 10.3128C28.1664 18.7119 21.7737 28.3895 10.0897 28.3895C6.49002 28.3895 3.14614 27.347 0.333313 25.5374C0.844752 25.5964 1.33645 25.6161 1.86757 25.6161C4.8377 25.6161 7.57187 24.6129 9.75525 22.9016C6.96211 22.8426 4.62136 21.0133 3.81488 18.4955C4.20831 18.5545 4.60169 18.5938 5.0148 18.5938C5.58521 18.5938 6.15568 18.5151 6.68674 18.3775C3.77558 17.7874 1.59214 15.2303 1.59214 12.1421V12.0634C2.43792 12.5355 3.42151 12.8306 4.46394 12.8699C2.75265 11.729 1.6315 9.78167 1.6315 7.57862C1.6315 6.39844 1.94616 5.31658 2.49696 4.37242C5.6245 8.22774 10.3257 10.7455 15.5972 11.0209C15.4989 10.5488 15.4398 10.0571 15.4398 9.56534C15.4398 6.06404 18.2723 3.21191 21.7932 3.21191C23.6225 3.21191 25.2748 3.97904 26.4354 5.21826C27.8712 4.94289 29.2481 4.41177 30.4677 3.684C29.9956 5.15928 28.9924 6.3985 27.6746 7.18524C28.9532 7.04762 30.1924 6.69348 31.3332 6.20178C30.4679 7.46061 29.3859 8.58176 28.1467 9.48663Z" fill="#4C0077"/>
</g>
<defs>
<clipPath id="clip0">
<rect width="31" height="31" fill="white" transform="translate(0.333313 0.300781)"/>
</clipPath>
</defs>
</svg>
